PathFileType	4	(X/Y/Z)	/Users/itak/Documents/Research/Walk-IL/dataset/trc/00100_00007.trc
DataRate	CameraRate	NumFrames	NumMarkers	Units	OrigDataRate	OrigDataStartFrame	OrigNumFrames
100.000000	100.000000	4	53	mm	100.000000	330	528
Frame#	Time	RPSI			LPSI			L3			STRN			T10			C7			CLAV			RBAK			LBAK			LSHO			LUPA			LAEL			LAOL			LWTS			LWPS			LFRA			LIFD			LHPS			LHTS			RSHO			RUPA			RAEL			RAOL			RWTS			RWPS			RFRA			RIFD			RHTS			RHPS			RBHD			LFHD			RFHD			LBHD			LHIP			RHIP			RASI			LASI			LKNE			LTHI			LANK			LTIP			LTOE			LMT1			LMT5			LHEE			RKNE			RTHI			RANK			RTIP			RTOE			RMT1			RMT5			RHEE			
		X1	Y1	Z1	X2	Y2	Z2	X3	Y3	Z3	X4	Y4	Z4	X5	Y5	Z5	X6	Y6	Z6	X7	Y7	Z7	X8	Y8	Z8	X9	Y9	Z9	X10	Y10	Z10	X11	Y11	Z11	X12	Y12	Z12	X13	Y13	Z13	X14	Y14	Z14	X15	Y15	Z15	X16	Y16	Z16	X17	Y17	Z17	X18	Y18	Z18	X19	Y19	Z19	X20	Y20	Z20	X21	Y21	Z21	X22	Y22	Z22	X23	Y23	Z23	X24	Y24	Z24	X25	Y25	Z25	X26	Y26	Z26	X27	Y27	Z27	X28	Y28	Z28	X29	Y29	Z29	X30	Y30	Z30	X31	Y31	Z31	X32	Y32	Z32	X33	Y33	Z33	X34	Y34	Z34	X35	Y35	Z35	X36	Y36	Z36	X37	Y37	Z37	X38	Y38	Z38	X39	Y39	Z39	X40	Y40	Z40	X41	Y41	Z41	X42	Y42	Z42	X43	Y43	Z43	X44	Y44	Z44	X45	Y45	Z45	X46	Y46	Z46	X47	Y47	Z47	X48	Y48	Z48	X49	Y49	Z49	X50	Y50	Z50	X51	Y51	Z51	X52	Y52	Z52	X53	Y53	Z53	

331	3.3	-258.2701110839844	1112.097045898438	-303.7459106445312	-250.5897369384766	1123.653686523438	-438.7926330566406	-261.6084594726562	1156.372314453125	-374.1389770507812	-43.27329254150391	1359.99072265625	-362.25537109375	-295.8620300292969	1309.944702148438	-376.4043579101562	-255.138671875	1601.171875	-392.9447021484375	-76.81591796875	1495.529907226562	-368.9019165039062	-316.1687622070312	1417.976928710938	-307.2520751953125	-256.0203247070312	1580.91259765625	-494.3966979980469	-164.8878479003906	1567.551147460938	-555.1630249023438	-172.7994537353516	1437.05322265625	-627.9521484375	-137.3377532958984	1221.650634765625	-657.9113159179688	-200.2943267822266	1199.322509765625	-602.0420532226562	-10.4675235748291	975.7572021484375	-629.5614624023438	-90.36105346679688	941.853515625	-656.5390625	-109.7689208984375	1108.578857421875	-667.392333984375	17.82858848571777	782.2067260742188	-614.9864501953125	-54.41775512695312	870.4895629882812	-661.3358154296875	12.83049964904785	888.072021484375	-645.2307739257812	-213.563232421875	1584.694091796875	-207.39697265625	-235.7840576171875	1512.684448242188	-144.9485778808594	-260.3260192871094	1221.156005859375	-116.6158142089844	-258.6430358886719	1217.364013671875	-213.5421447753906	-116.8647766113281	978.4708251953125	-114.3476409912109	-192.5822143554688	961.9973754882812	-87.90392303466797	-238.5138854980469	1147.836791992188	-97.59635925292969	-91.43383026123047	783.034423828125	-126.3836898803711	-88.06280517578125	869.91748046875	-105.0560836791992	-156.0737457275391	862.6477661132812	-79.45819854736328	-223.5896759033203	1770.747924804688	-310.7334899902344	-65.52753448486328	1841.488891601562	-448.0426025390625	-65.63294219970703	1853.601684570312	-319.4066162109375	-231.1352386474609	1762.74560546875	-447.3359985351562	-153.1083221435547	1042.892211914062	-547.7965698242188	-128.4240264892578	1018.953063964844	-184.9388885498047	-52.79242706298828	1099.343139648438	-233.9413604736328	-48.11962509155273	1106.891723632812	-498.9302978515625	-94.05055999755859	538.4279174804688	-501.1145629882812	-124.3746490478516	682.54345703125	-535.0516967773438	-169.5210876464844	29.55575561523438	-464.9978637695312	-176.9770965576172	284.2499084472656	-514.2031860351562	59.49413681030273	40.84599304199219	-404.6209411621094	-20.54032897949219	46.8489990234375	-372.5667114257812	-44.69623184204102	30.5271110534668	-490.4241943359375	-239.2493743896484	34.94470596313477	-404.7852478027344	19.68900680541992	547.84130859375	-222.2922668457031	-51.18303680419922	820.0867919921875	-195.8366851806641	-324.559326171875	145.0052490234375	-207.0646514892578	-59.31232070922852	433.1400451660156	-205.6314239501953	-119.1424102783203	48.34745788574219	-234.5726623535156	-172.1007385253906	58.26039505004883	-283.0019226074219	-213.0358123779297	82.3409423828125	-172.067626953125	-368.0978393554688	174.2518768310547	-261.4970092773438	
332	3.31	-250.3374938964844	1112.219848632812	-303.9374084472656	-242.9828186035156	1123.636596679688	-439.0059204101562	-253.973876953125	1156.346313476562	-374.5841064453125	-35.24754333496094	1359.924926757812	-363.1577758789062	-287.8290100097656	1310.202880859375	-377.0887145996094	-246.7084045410156	1601.360107421875	-393.5300903320312	-68.54244995117188	1495.549926757812	-369.486083984375	-308.0715942382812	1418.158447265625	-308.1248168945312	-247.6067199707031	1581.215576171875	-495.0639953613281	-156.3694763183594	1567.974975585938	-555.6189575195312	-163.1064147949219	1437.629638671875	-628.605712890625	-124.5772476196289	1222.81591796875	-659.0413208007812	-186.7225189208984	1199.267700195312	-603.1273803710938	6.68059778213501	978.971923828125	-631.868408203125	-72.85495758056641	943.8345947265625	-658.3938598632812	-95.03002166748047	1110.238525390625	-668.9375610351562	38.20685195922852	785.8328247070312	-618.0791625976562	-35.7838134765625	873.1043701171875	-663.6317749023438	31.3189640045166	891.7808837890625	-647.95263671875	-205.22998046875	1584.527221679688	-207.9532470703125	-227.8190155029297	1512.598510742188	-145.64111328125	-254.7749176025391	1221.315063476562	-118.0028991699219	-252.9273681640625	1217.790893554688	-214.9354858398438	-114.0008010864258	977.0526733398438	-116.140007019043	-189.8725280761719	961.3786010742188	-89.80279541015625	-233.7838592529297	1147.770385742188	-99.13362121582031	-90.72158813476562	781.40576171875	-128.887939453125	-86.44916534423828	868.171630859375	-107.2448883056641	-154.5441589355469	861.55908203125	-81.71463012695312	-214.9664611816406	1770.69873046875	-310.8397827148438	-56.50122833251953	1841.712768554688	-447.9464416503906	-56.78326034545898	1853.399536132812	-319.2337646484375	-222.4301605224609	1763.077270507812	-447.4489440917969	-146.0726470947266	1042.587036132812	-548.244140625	-119.8165969848633	1019.561584472656	-185.3408050537109	-44.45516967773438	1099.706420898438	-234.9204864501953	-40.59550094604492	1106.651733398438	-499.9898071289062	-89.94806671142578	537.958740234375	-501.3259582519531	-119.022087097168	682.2876586914062	-535.1517944335938	-169.4819030761719	29.71445274353027	-464.8548583984375	-174.9462432861328	284.3956298828125	-514.1869506835938	59.87621307373047	40.50782775878906	-404.4976501464844	-20.43788146972656	46.73761749267578	-372.5337829589844	-44.66061401367188	30.52720642089844	-490.4605407714844	-239.1107635498047	35.20145797729492	-404.5945739746094	33.67822647094727	550.5245361328125	-222.8566589355469	-40.55168151855469	821.861328125	-195.5362243652344	-296.7841796875	136.2081451416016	-207.6257781982422	-42.52447128295898	433.6880798339844	-206.2157440185547	-87.06021881103516	48.5390739440918	-235.1083984375	-140.5482177734375	56.10937118530273	-283.4728088378906	-182.4373016357422	78.65673828125	-172.7153015136719	-341.6513977050781	163.4366607666016	-262.1994018554688	
333	3.32	-242.3805236816406	1112.29345703125	-304.0868835449219	-235.3801727294922	1123.5751953125	-439.1824951171875	-246.2862548828125	1156.32373046875	-374.9476013183594	-27.2632884979248	1359.782104492188	-363.9666748046875	-279.8826293945312	1310.383422851562	-377.7046508789062	-238.3041381835938	1601.4765625	-394.0595397949219	-60.30179214477539	1495.484375	-370.008056640625	-299.9998779296875	1418.279296875	-308.9232177734375	-239.2134094238281	1581.430419921875	-495.6728210449219	-147.8805999755859	1568.283081054688	-556.015380859375	-153.5096588134766	1438.101928710938	-629.1808471679688	-111.9758605957031	1223.923950195312	-660.0958251953125	-173.3994140625	1199.185302734375	-604.1865844726562	23.63722038269043	982.2661743164062	-633.9473876953125	-55.47051239013672	945.8478393554688	-660.0780029296875	-80.45986175537109	1111.8779296875	-670.370361328125	58.59018325805664	789.6786499023438	-620.9539184570312	-17.18302726745605	875.8171997070312	-665.7481689453125	49.71722030639648	895.646240234375	-650.4535522460938	-196.9224395751953	1584.313598632812	-208.4490203857422	-219.85986328125	1512.4619140625	-146.2687835693359	-249.0628662109375	1221.432250976562	-119.3098602294922	-247.1064605712891	1218.169555664062	-216.2415771484375	-111.019401550293	975.5909423828125	-117.9832305908203	-187.0056610107422	960.7567749023438	-91.62232971191406	-228.8567199707031	1147.683227539062	-100.6004028320312	-90.05480194091797	779.7377319335938	-131.4444885253906	-84.77622985839844	866.3675537109375	-109.51953125	-152.8889770507812	860.4786987304688	-83.90552520751953	-206.3431243896484	1770.569458007812	-310.9196166992188	-47.48421478271484	1841.874877929688	-447.8401489257812	-48.00112533569336	1853.099975585938	-319.0126037597656	-213.7538299560547	1763.316528320312	-447.5137329101562	-138.9692230224609	1042.241821289062	-548.6165771484375	-111.2513427734375	1020.076354980469	-185.7055053710938	-36.15244293212891	1099.961669921875	-235.8127288818359	-33.08346557617188	1106.36376953125	-500.9552307128906	-85.74952697753906	537.4727783203125	-501.5034484863281	-113.6086273193359	682.004150390625	-535.2326049804688	-169.4358673095703	29.89044380187988	-464.7236633300781	-172.8501739501953	284.5342712402344	-514.1654663085938	60.25205230712891	40.17441177368164	-404.3832092285156	-20.33168601989746	46.62789154052734	-372.5064392089844	-44.62654876708984	30.52947044372559	-490.4879760742188	-238.9937744140625	35.46399688720703	-404.4247436523438	47.33222579956055	553.0631103515625	-223.4203796386719	-30.12845420837402	823.5005493164062	-195.1904296875	-268.4475402832031	127.3255844116211	-208.1981964111328	-25.86202812194824	434.0619506835938	-206.7460479736328	-54.73133087158203	49.00201416015625	-235.4981079101562	-108.5859909057617	54.16357040405273	-283.8309936523438	-151.53076171875	75.08570098876953	-173.2811737060547	-314.5440979003906	152.4291076660156	-262.9386596679688	
334	3.33	-234.4041137695312	1112.322631835938	-304.1918029785156	-227.7759094238281	1123.4697265625	-439.3153076171875	-238.5524749755859	1156.297119140625	-375.2252807617188	-19.32283592224121	1359.572387695312	-364.6772155761719	-272.0194702148438	1310.496459960938	-378.2326965332031	-229.9288787841797	1601.522338867188	-394.5306701660156	-52.09741592407227	1495.343505859375	-370.4544677734375	-291.9448547363281	1418.336791992188	-309.6420288085938	-230.8386993408203	1581.564208984375	-496.2204895019531	-139.4167022705078	1568.4873046875	-556.3434448242188	-144.0122222900391	1438.482543945312	-629.676513671875	-99.52985382080078	1224.98388671875	-661.0796508789062	-160.3462677001953	1199.087646484375	-605.2428588867188	40.38568115234375	985.6494140625	-635.7622680664062	-38.21114349365234	947.904052734375	-661.6091918945312	-66.06480407714844	1113.504272460938	-671.6889038085938	78.94774627685547	793.78125	-623.5575561523438	1.376516938209534	878.6425170898438	-667.6806640625	68.0059814453125	899.6700439453125	-652.67626953125	-188.6564178466797	1584.057495117188	-208.88427734375	-211.9195709228516	1512.277221679688	-146.8313598632812	-243.1933746337891	1221.505004882812	-120.5550994873047	-241.1512908935547	1218.496948242188	-217.4814605712891	-107.9092788696289	974.0938110351562	-119.8438720703125	-183.9932861328125	960.132080078125	-93.37357330322266	-223.7294006347656	1147.569091796875	-102.0072326660156	-89.40908813476562	778.039306640625	-133.9995422363281	-83.03428649902344	864.5132446289062	-111.8251113891602	-151.1107482910156	859.4110717773438	-86.02101135253906	-197.7110137939453	1770.380493164062	-310.9838562011719	-38.49487686157227	1841.954833984375	-447.7148742675781	-39.2672233581543	1852.7138671875	-318.7561645507812	-205.10400390625	1763.471069335938	-447.5335693359375	-131.7701568603516	1041.859130859375	-548.9078369140625	-102.7195739746094	1020.499938964844	-186.0327911376953	-27.87819671630859	1100.121459960938	-236.6256256103516	-25.5855884552002	1106.030029296875	-501.8321838378906	-81.46298217773438	536.970703125	-501.6364135742188	-108.1859664916992	681.6974487304688	-535.2994995117188	-169.3866119384766	30.07796478271484	-464.6040344238281	-170.6973114013672	284.6651916503906	-514.1399536132812	60.60661697387695	39.85790252685547	-404.2783813476562	-20.22296333312988	46.5189208984375	-372.4801025390625	-44.59491729736328	30.53244400024414	-490.5081481933594	-238.9056549072266	35.73083114624023	-404.2779846191406	60.61948394775391	555.441650390625	-223.9483489990234	-19.9387149810791	824.9906616210938	-194.8100128173828	-239.6137847900391	118.4935531616211	-208.7799835205078	-9.32909107208252	434.28076171875	-207.1870269775391	-22.31633186340332	49.73139953613281	-235.6951599121094	-76.36441802978516	52.44698715209961	-284.0493774414062	-120.4528121948242	71.68878173828125	-173.7293701171875	-286.8143005371094	141.3851928710938	-263.7068786621094	
